<svg xmlns="http://www.w3.org/2000/svg" width="140" height="132" viewBox="0 0 140 132" role="img" aria-labelledby="title desc"><title id="title">Reed patch</title><desc id="desc">Soft wind-bent transparent plant group.</desc><g id="arena.prop.reed_patch.v03" data-asset-id="arena.prop.reed_patch.v03">
<ellipse cx="70" cy="115" rx="49" ry="10" fill="#132b31" opacity=".28"/><g fill="none" stroke-linecap="round"><path d="M41 113C38 76 43 39 31 15M55 115C58 78 55 43 67 8M74 116C72 78 80 46 87 22M90 114C99 78 96 49 111 17M106 114C111 84 123 64 129 37" stroke="#738c76" stroke-width="7"/><path d="M42 74C23 62 18 46 15 32M58 58C76 47 83 33 86 21M76 75C56 59 49 45 46 30M97 69C111 56 116 42 119 29" stroke="#a0ae89" stroke-opacity=".66" stroke-width="5"/></g><g fill="#91a681" opacity=".72"><path d="M30 16C20 9 15 4 14 0C27 3 34 8 36 15Z"/><path d="M67 9C72 1 78-4 85-6C83 5 77 11 69 15Z"/><path d="M111 17C119 8 124 3 131 1C128 13 121 18 112 23Z"/></g>
</g></svg>